<?xml version="1.0" encoding="utf-8"?>
<!-- Generator: Adobe Illustrator 23.0.2, SVG Export Plug-In . SVG Version: 6.00 Build 0)  -->
<svg version="1.1"
	 id="svg178" xmlns:cc="http://creativecommons.org/ns#" xmlns:dc="http://purl.org/dc/elements/1.1/" xmlns:rdf="http://www.w3.org/1999/02/22-rdf-syntax-ns#" xmlns:svg="http://www.w3.org/2000/svg"
	 xmlns="http://www.w3.org/2000/svg" xmlns:xlink="http://www.w3.org/1999/xlink" x="0px" y="0px" viewBox="0 0 853 331"
	 style="enable-background:new 0 0 853 331;" xml:space="preserve">
<style type="text/css">
	.st0{fill:none;stroke:#CECECE;stroke-width:1.8;}
	.st1{fill:none;stroke:#CECECE;stroke-width:2;}
	.st2{fill:none;stroke:#CECECE;stroke-width:1.5;}
	.st3{fill:#689BD6;fill-opacity:0;stroke:#CECECE;stroke-width:2;stroke-linejoin:round;}
</style>
<g id="g176" transform="translate(-1 1)">
	<g id="g148">
		<path id="path142" class="st0" d="M163.9,282c-2.1-5-7.1-8.5-12.9-8.5c-7.7,0-14,6.3-14,14c0,2.4,0.6,4.7,1.7,6.7 M141.1,297.4
			c2.6,2.6,6.2,4.1,9.9,4.1c7.7,0,14-6.3,14-14c0-0.4,0-0.8-0.1-1.2"/>
		<path id="path144" class="st0" d="M136.7,287.5c-9.6,5.9-15.6,11.4-14.4,13.8c1.6,3.3,16.2-0.4,32.5-8.4s28.2-17.1,26.6-20.5
			c-1.2-2.6-10-1-21.4,3.5"/>
		<path id="path146" class="st0" d="M137.3,291.7c-2.6,1.8-4.1,3.2-3.8,3.8c0.6,1.3,9-1.5,18.7-6.2c9.7-4.7,17.1-9.6,16.4-10.9
			c-0.3-0.6-2.5-0.3-5.8,0.8"/>
	</g>
	<g id="g156">
		<path id="path150" class="st0" d="M764.1,63.5c2.1-5,7.1-8.5,12.9-8.5c7.7,0,14,6.3,14,14c0,2.4-0.6,4.7-1.7,6.7 M786.9,78.9
			c-2.6,2.6-6.2,4.1-9.9,4.1c-7.7,0-14-6.3-14-14c0-0.4,0-0.8,0.1-1.2"/>
		<path id="path152" class="st0" d="M790.9,69.9c9.7,5.7,15.8,10.9,14.8,13c-1.4,2.8-15.7-1.3-32.1-9.3c-16.3-8-28.4-16.7-27.1-19.6
			c1.1-2.2,9.7-0.3,21,4.3"/>
		<path id="path154" class="st0" d="M790.7,73.2c2.6,1.8,4.1,3.2,3.8,3.8c-0.6,1.3-9-1.5-18.7-6.2c-9.7-4.7-17.1-9.6-16.4-10.9
			c0.3-0.6,2.5-0.3,5.8,0.8"/>
	</g>
	<g id="g160">
		<path id="path158" class="st1" d="M145.5,129.4V121 M145.5,140.5v-7.7 M146.9,130.9h8.5 M135.8,130.9h7.7"/>
	</g>
	<g id="g164">
		<path id="path162" class="st1" d="M739.5,189.4V181 M739.5,200.5v-7.7 M740.9,190.9h8.5 M729.8,190.9h7.7"/>
	</g>
	<path id="path166" class="st1" d="M37.5,306.7l0.6,7.2l7.2,0.6l-7.2,0.6l-0.6,7.2l-0.6-7.2l-7.2-0.6l7.2-0.6L37.5,306.7z"/>
	<path id="path168" class="st2" d="M5.3,122.3l-2.6,0.4l1.2-2.4L2.7,118l2.6,0.4l1.9-1.9l0.4,2.6l2.4,1.2l-2.4,1.2l-0.4,2.6
		L5.3,122.3z M141.5,5.8l-2,0.3l0.9-1.8l-0.9-1.8l2,0.3l1.4-1.4l0.3,2l1.8,0.9l-1.8,0.9l-0.3,2L141.5,5.8z"/>
	<circle id="circle170" class="st2" cx="290.5" cy="37.5" r="7.5"/>
	<circle id="circle172" class="st2" cx="779.5" cy="321.5" r="7.5"/>
	<path id="path174" class="st2" d="M849.1,255l-1.6,0.3l0.8-1.5l-0.8-1.5l1.6,0.3l1.2-1.2l0.2,1.6l1.5,0.7l-1.5,0.7l-0.2,1.6
		L849.1,255z M681.2,291.2l-3.6,0.6l1.7-3.2l-1.7-3.2l3.6,0.6l2.5-2.6l0.5,3.6l3.3,1.6l-3.3,1.6l-0.5,3.6L681.2,291.2z M651.2,91.2
		l-3.6,0.6l1.7-3.2l-1.7-3.2l3.6,0.6l2.5-2.6l0.5,3.6l3.3,1.6l-3.3,1.6l-0.5,3.6L651.2,91.2z"/>
</g>
<g id="layer1">
	<g id="g193" transform="translate(232.81594,83.491491)">
		<path id="path187" class="st3" d="M83.2,126.2l-4.5,25.2c-0.2,1-1,1.6-2,1.6H57.6c-1.1,0-2-0.9-2-2c0-0.1,0-0.2,0-0.3l4.2-23.8
			c0.2-1.1-0.5-2.1-1.6-2.3c-0.1,0-0.2,0-0.4,0H5.8c-2.2,0-4-1.8-4-4c0-0.2,0-0.5,0.1-0.7L4.6,104c0.1-0.6,0.4-1.2,0.8-1.8L76,11.5
			c0.8-1,1.9-1.5,3.2-1.5h22.4c1.1,0,2,0.9,2,2c0,0.1,0,0.2,0,0.4L88.1,98.2c-0.2,1.1,0.5,2.1,1.6,2.3c0.1,0,0.2,0,0.4,0h8.7
			c1.1,0,2,0.9,2,2c0,0.1,0,0.2,0,0.3l-3.5,19.9c-0.2,1-1,1.7-2,1.7H85.2C84.2,124.5,83.4,125.2,83.2,126.2L83.2,126.2z M68,57.8
			L37.5,96.5c-0.7,0.9-0.5,2.1,0.3,2.8c0.4,0.3,0.8,0.4,1.2,0.4h21.7c1.9,0,3.6-1.4,3.9-3.3l6.8-37.1c0.2-1.1-0.5-2.1-1.6-2.3
			C69.2,56.9,68.5,57.2,68,57.8L68,57.8z M365.2,126.2l-4.5,25.2c-0.2,1-1,1.6-2,1.6h-19.1c-1.1,0-2-0.9-2-2c0-0.1,0-0.2,0-0.3
			l4.2-23.8c0.2-1.1-0.5-2.1-1.6-2.3c-0.1,0-0.2,0-0.4,0h-52.1c-2.2,0-4-1.8-4-4c0-0.2,0-0.5,0.1-0.7l2.8-15.8
			c0.1-0.6,0.4-1.2,0.8-1.8L358,11.5c0.8-1,1.9-1.5,3.2-1.5h22.4c1.1,0,2,0.9,2,2c0,0.1,0,0.2,0,0.4l-15.5,85.9
			c-0.2,1.1,0.5,2.1,1.6,2.3c0.1,0,0.2,0,0.4,0h8.7c1.1,0,2,0.9,2,2c0,0.1,0,0.2,0,0.3l-3.5,19.9c-0.2,1-1,1.7-2,1.7h-10.1
			C366.2,124.5,365.4,125.2,365.2,126.2L365.2,126.2z M350,57.8l-30.5,38.7c-0.7,0.9-0.5,2.1,0.3,2.8c0.4,0.3,0.8,0.4,1.2,0.4h21.7
			c1.9,0,3.6-1.4,3.9-3.3l6.8-37.1c0.2-1.1-0.5-2.1-1.6-2.3C351.2,56.9,350.5,57.2,350,57.8L350,57.8z"/>
		<path id="path189" class="st1" d="M197.9,49.6c-43.1-2.2-30.4-48,6.7-30.9C220.1,25.8,226,51,197.9,49.6L197.9,49.6z M237.8,62.5
			c-7.5-5.4-10.5-16-5.8-21.7c4.7-5.7,17-6.6,24.4,3.1C266.9,57.8,252.8,73.3,237.8,62.5L237.8,62.5z M250.3,113.7
			c-11,9-25,8.1-30.4,1.5c-13.3-16.3,4.5-36.5,18.8-36.5C267.3,78.7,261.3,104.7,250.3,113.7z M202.1,81.5
			c-10.9,11.5-29.5-2-16.9-15.4C197.2,53.4,213,70,202.1,81.5z M130.3,72.2c11.6-30.4,44.2-6.3,31.5,12.5
			C149.1,103.6,117.4,106.1,130.3,72.2z M147,137c-5-4-6-19.6,12-18c5.7,0.5,10,8,6,14S152,141,147,137z M170.1,103.8
			C175,89.4,202,98.7,201,112S165.2,118.2,170.1,103.8z M194.5,142.7c-0.2-6.7,3.8-13.8,13.9-13.4c10.1,0.4,12.9,14.5,5.1,18.4
			C205.7,151.6,194.7,149.4,194.5,142.7z"/>
		<path id="path191" class="st1" d="M158.4,157.2c40.6,18.1,91.7-6.3,109.8-47.1C286.4,69.3,272,26,231.4,8s-89.8,2.9-107.9,43.7
			S117.8,139.1,158.4,157.2L158.4,157.2z"/>
	</g>
</g>
</svg>
