<?xml version="1.0" encoding="utf-8"?>
<!-- Generator: Adobe Illustrator 23.0.2, SVG Export Plug-In . SVG Version: 6.00 Build 0)  -->
<svg version="1.1"
	 id="svg152" xmlns:cc="http://creativecommons.org/ns#" xmlns:dc="http://purl.org/dc/elements/1.1/" xmlns:rdf="http://www.w3.org/1999/02/22-rdf-syntax-ns#" xmlns:svg="http://www.w3.org/2000/svg"
	 xmlns="http://www.w3.org/2000/svg" xmlns:xlink="http://www.w3.org/1999/xlink" x="0px" y="0px" viewBox="0 0 853 331"
	 style="enable-background:new 0 0 853 331;" xml:space="preserve">
<style type="text/css">
	.st0{fill:none;stroke:#CECECE;stroke-width:1.8;}
	.st1{fill:none;stroke:#CECECE;stroke-width:2;}
	.st2{fill:none;stroke:#CECECE;stroke-width:1.5;}
	.st3{fill:none;stroke:#CECECE;stroke-width:2.2;}
	.st4{opacity:0.9;fill:none;stroke:#CECECE;stroke-width:2.2;stroke-linecap:square;enable-background:new    ;}
	.st5{fill:none;stroke:#CECECE;stroke-width:2.2;stroke-linecap:square;}
	.st6{fill:none;stroke:#CECECE;stroke-width:2.2;stroke-linecap:square;stroke-linejoin:round;}
</style>
<g id="g150" transform="matrix(-1 0 0 1 854 1)">
	<g id="g122">
		<path id="path116" class="st0" d="M211.9,244c-2.1-5-7.1-8.5-12.9-8.5c-7.7,0-14,6.3-14,14c0,2.4,0.6,4.7,1.7,6.7 M189.1,259.4
			c2.6,2.6,6.2,4.1,9.9,4.1c7.7,0,14-6.3,14-14c0-0.4,0-0.8-0.1-1.2"/>
		<path id="path118" class="st0" d="M184.7,249.5c-9.6,5.9-15.6,11.4-14.4,13.8c1.6,3.3,16.2-0.4,32.5-8.4
			c16.3-8,28.2-17.1,26.6-20.5c-1.2-2.6-10-1-21.4,3.5"/>
		<path id="path120" class="st0" d="M185.3,253.7c-2.6,1.8-4.1,3.2-3.8,3.8c0.6,1.3,9-1.5,18.7-6.2c9.7-4.7,17.1-9.6,16.4-10.9
			c-0.3-0.6-2.5-0.3-5.8,0.8"/>
	</g>
	<g id="g130">
		<path id="path124" class="st0" d="M764.1,63.5c2.1-5,7.1-8.5,12.9-8.5c7.7,0,14,6.3,14,14c0,2.4-0.6,4.7-1.7,6.7 M786.9,78.9
			c-2.6,2.6-6.2,4.1-9.9,4.1c-7.7,0-14-6.3-14-14c0-0.4,0-0.8,0.1-1.2"/>
		<path id="path126" class="st0" d="M790.9,69.9c9.7,5.7,15.8,10.9,14.8,13c-1.4,2.8-15.7-1.3-32.1-9.3c-16.3-8-28.4-16.7-27.1-19.6
			c1.1-2.2,9.7-0.3,21,4.3"/>
		<path id="path128" class="st0" d="M790.7,73.2c2.6,1.8,4.1,3.2,3.8,3.8c-0.6,1.3-9-1.5-18.7-6.2c-9.7-4.7-17.1-9.6-16.4-10.9
			c0.3-0.6,2.5-0.3,5.8,0.8"/>
	</g>
	<g id="g134">
		<path id="path132" class="st1" d="M145.5,129.4V121 M145.5,140.5v-7.7 M146.9,130.9h8.5 M135.8,130.9h7.7"/>
	</g>
	<g id="g138">
		<path id="path136" class="st1" d="M739.5,189.4V181 M739.5,200.5v-7.7 M740.9,190.9h8.5 M729.8,190.9h7.7"/>
	</g>
	<path id="path140" class="st1" d="M37.5,306.7l0.6,7.2l7.2,0.6l-7.2,0.6l-0.6,7.2l-0.6-7.2l-7.2-0.6l7.2-0.6L37.5,306.7z"/>
	<path id="path142" class="st2" d="M5.3,122.3l-2.6,0.4l1.2-2.4L2.7,118l2.6,0.4l1.9-1.9l0.4,2.6l2.4,1.2l-2.4,1.2l-0.4,2.6
		L5.3,122.3z M141.5,5.8l-2,0.3l0.9-1.8l-0.9-1.8l2,0.3l1.4-1.4l0.3,2l1.8,0.9l-1.8,0.9l-0.3,2L141.5,5.8z"/>
	<circle id="circle144" class="st2" cx="549.5" cy="11.5" r="7.5"/>
	<circle id="circle146" class="st2" cx="779.5" cy="321.5" r="7.5"/>
	<path id="path148" class="st2" d="M849.1,255l-1.6,0.3l0.8-1.5l-0.8-1.5l1.6,0.3l1.2-1.2l0.2,1.6l1.5,0.7l-1.5,0.7l-0.2,1.6
		L849.1,255z M604.7,237.1l-3.6,0.6l1.7-3.2l-1.7-3.2l3.6,0.6l2.5-2.6l0.5,3.6l3.3,1.6l-3.3,1.6l-0.5,3.6L604.7,237.1z M651.2,91.2
		l-3.6,0.6l1.7-3.2l-1.7-3.2l3.6,0.6l2.5-2.6l0.5,3.6l3.3,1.6l-3.3,1.6l-0.5,3.6L651.2,91.2z"/>
</g>
<g id="g184" transform="translate(292.9738,35.415427)">
	<path id="path160" class="st3" d="M76.9,121.2c-39.9,2-36.2-37.8,1.8-30.9C90.7,92.4,95,101,92.8,110.8S80,121,76.9,121.2z
		 M157.8,205c-9.7,7.6-23.7,8.7-29.3,1.9c-13.9-16.9,4.7-37.9,19.6-38C184.1,168.6,167.5,197.4,157.8,205z M83.3,142.8
		c14.2-15,31.4,0.2,21.5,16.3C95,175.3,68.4,158.6,83.3,142.8z M17.9,151.3c13.7-35.8,52.3-7.5,37.2,14.7
		C40.1,188.2,2.7,191.2,17.9,151.3z M41.1,225.5c-5.3-5.4-4.2-16.7,12-14.6c6.7,0.9,8.8,8.2,5,12.3C54.4,227.4,46.4,231,41.1,225.5
		L41.1,225.5z M63.7,186.3c5.8-17,35.2-0.2,34,15.5S57.9,203.2,63.7,186.3z M108.9,222.3c20-6.7,21.9,12.1,6.3,18.7
		C99.6,247.7,88.9,229,108.9,222.3z"/>
	<path id="path162" class="st3" d="M151.3,83.1c-3.9-2.4-8-4.6-12.2-6.4C91.1,55.4,33,80,11.6,127.9S5,230.5,53.1,251.8
		c48.1,21.3,108.4-7.3,129.8-55.1c12.9-28.8,11.8-58.8-1.6-82.7"/>
	<path id="path164" class="st3" d="M220.3,24.5c-15.1,8.7-33.3,22.1-49.4,38.2c-14.2,14.2-24.6,29.2-31,44.8 M161.7,125.1
		c14.6-6.5,28.5-16.4,41.8-29.7c16-16,29.3-34.1,38-49.1 M175.9,90.4c-4.2-4.2-10.9-4.2-15.1,0s-4.2,10.9,0,15.1
		c4.2,4.2,10.9,4.2,15.1,0S180,94.5,175.9,90.4z"/>
	<path id="path166" class="st4" d="M152.7,113.5l7.5-7.5"/>
	<path id="path168" class="st5" d="M175.6,91.2l55.3-55.3 M240.6,46.4l-21.2-21.2"/>
	<path id="path170" class="st3" d="M220.3,25.4l2.8-8.9l27.7,27.7l-8.4,3.3"/>
	<path id="path172" class="st6" d="M190.3,45.2c-2.1-5.5-1.5-12.6,1.8-21.2c3.4-8.6,12.3-16,26.9-22.2c-10.8,9-14.9,19.4-12.1,31.2
		 M221.7,76.5c5.5,2.2,12.6,1.5,21.2-1.8c8.6-3.4,16-12.3,22.2-26.9c-9,10.8-19.4,14.9-31.2,12.1"/>
	<g id="g176">
		<path id="path174" class="st3" d="M132.1,92c-4.8-6.1-7-10.3-3.2-18.4c1-2.1,4.5-5.9,5-9.2c1-7.2-6.5-11.5-4.6-19.4
			c1.3-5.2,4.4-6.9,2.4-12 M122,63c-11.8-10.5-2.9-14.5-0.5-24.9c0.9-3.8-4.3-6.7-4.7-10.6c-0.3-2.9-0.8-10.5,3.2-11.5 M142.9,50
			c1-6.7,3.6-13.3,3-20c-1.2-13.1-9.3-11.8-4.3-23"/>
	</g>
	<path id="path178" class="st3" d="M159,123l11,13.1l-4.9,9.5l4.9,8.3 M135.8,113.6l-7.1-3.6v-9.5l-9.5-3.6"/>
	<path id="path180" class="st3" d="M141.5,108l-5.6,5.1l-2.5,6.5l-11.9-2l-15.2,6.4 M149,112l-5.9,16.5h-8.2l-7,9.5H122 M142.6,129
		l2.4,8.2l-6,7l3.6,12.8"/>
	<path id="path182" class="st3" d="M136,103l4.7,3.6v1.2l3.3,4.2l6.2,0.6l2.8,5.4h6v5l5,6l12.3-3.2l4.7,7.2"/>
</g>
</svg>
