<svg width="17" height="16" viewBox="0 0 17 16" fill="none" xmlns="http://www.w3.org/2000/svg">
<path d="M15.4062 0.1875H1.59375C0.697266 0.1875 0 0.917969 0 1.78125V13.4688C0 14.3652 0.697266 15.0625 1.59375 15.0625H15.4062C16.2695 15.0625 17 14.3652 17 13.4688V1.78125C17 0.917969 16.2695 0.1875 15.4062 0.1875ZM1.59375 2.17969C1.59375 1.98047 1.75977 1.78125 1.99219 1.78125H3.32031C3.51953 1.78125 3.71875 1.98047 3.71875 2.17969V2.97656C3.71875 3.20898 3.51953 3.375 3.32031 3.375H1.99219C1.75977 3.375 1.59375 3.20898 1.59375 2.97656V2.17969ZM15.4062 13.2695C15.4062 13.4023 15.3066 13.4688 15.207 13.4688H1.79297C1.66016 13.4688 1.59375 13.4023 1.59375 13.2695V4.70312H15.4062V13.2695ZM15.4062 2.97656C15.4062 3.20898 15.207 3.375 15.0078 3.375H5.71094C5.47852 3.375 5.3125 3.20898 5.3125 2.97656V2.17969C5.3125 1.98047 5.47852 1.78125 5.71094 1.78125H15.0078C15.207 1.78125 15.4062 1.98047 15.4062 2.17969V2.97656Z" fill="#010B2B"/>
</svg>
