<svg width="17" height="17" viewBox="0 0 17 17" fill="none" xmlns="http://www.w3.org/2000/svg">
<path d="M16.7344 8.625C16.7012 4.07617 13.0156 0.390625 8.5 0.390625C6.20898 0.390625 4.11719 1.35352 2.62305 2.84766L1.12891 1.35352C0.896484 1.12109 0.464844 1.28711 0.464844 1.65234V5.83594C0.464844 6.06836 0.630859 6.23438 0.863281 6.23438H5.11328C5.47852 6.23438 5.64453 5.80273 5.41211 5.57031L3.78516 3.97656C4.98047 2.74805 6.64062 1.98438 8.5 1.98438C12.1523 1.98438 15.1406 4.97266 15.1406 8.625C15.1406 12.3105 12.1523 15.2656 8.5 15.2656C6.77344 15.2656 5.24609 14.6348 4.05078 13.6055C3.91797 13.4727 3.65234 13.4727 3.51953 13.6055L2.95508 14.1699C2.78906 14.3359 2.78906 14.6016 2.95508 14.7676C4.41602 16.0625 6.375 16.8926 8.5 16.8594C13.0156 16.8594 16.7344 13.1738 16.7344 8.625ZM11.1562 11.6133L11.6543 10.9824C11.7539 10.7832 11.7207 10.5508 11.5547 10.418L9.29688 8.75781V3.97656C9.29688 3.77734 9.09766 3.57812 8.89844 3.57812H8.10156C7.86914 3.57812 7.70312 3.77734 7.70312 3.97656V9.58789L10.625 11.7129C10.791 11.8457 11.0566 11.8125 11.1562 11.6133Z" fill="#010B2B"/>
</svg>
