<svg width="20" height="16" viewBox="0 0 20 16" fill="none" xmlns="http://www.w3.org/2000/svg">
<path d="M18.9258 7.35938L17 5.76562V2.57812C17 2.44531 16.8672 2.3125 16.7344 2.3125H15.6719C15.5059 2.3457 15.4062 2.44531 15.4062 2.57812V4.4707L10.7246 0.619141C10.459 0.386719 9.92773 0.220703 9.5625 0.220703C9.16406 0.220703 8.63281 0.386719 8.36719 0.619141L0.166016 7.35938C0.0664062 7.45898 0 7.625 0 7.75781C0 7.85742 0.0332031 8.02344 0.0996094 8.08984L0.464844 8.52148C0.53125 8.62109 0.730469 8.6875 0.863281 8.6875C0.962891 8.6875 1.12891 8.6543 1.19531 8.58789L2.125 7.82422V14C2.125 14.5977 2.58984 15.0625 3.1875 15.0625H7.4375C8.00195 15.0625 8.4668 14.5977 8.5 14V10.5469H10.625V14C10.625 14.5977 11.0898 15.0625 11.6875 15.0625H15.9375C16.502 15.0625 16.9668 14.5977 17 14.0332V7.82422L17.8965 8.58789C17.9629 8.6543 18.1289 8.7207 18.2285 8.7207C18.3613 8.7207 18.5605 8.62109 18.6602 8.52148L18.9922 8.08984C19.0586 8.02344 19.125 7.85742 19.125 7.75781C19.125 7.625 19.0254 7.45898 18.9258 7.35938ZM15.373 13.4688H12.2188V10.0156C12.1855 9.45117 11.7207 8.98633 11.1562 8.95312H7.96875C7.37109 8.98633 6.90625 9.45117 6.90625 10.0156V13.4688H3.71875V6.5293L9.5625 1.71484L15.4062 6.5293L15.373 13.4688Z" fill="#010B2B"/>
</svg>
