<svg width="15" height="20" viewBox="0 0 15 20" fill="none" xmlns="http://www.w3.org/2000/svg">
<path d="M13.6133 4.08767L10.5143 1.02561C10.1823 0.693576 9.73958 0.472222 9.29688 0.472222H1.73394C0.77474 0.509114 0 1.28385 0 2.27995V17.6272C0 18.5864 0.77474 19.3611 1.73394 19.3611H12.3589C13.355 19.3611 14.1667 18.5864 14.1667 17.6272V5.34201C14.1667 4.89931 13.9453 4.4197 13.6133 4.08767ZM9.40755 2.39062L12.2483 5.23134H9.40755V2.39062ZM12.3958 17.6272H1.73394V2.27995H7.63672V6.11675C7.63672 6.59635 8.04253 7.00217 8.52214 7.00217H12.3958V17.6272ZM7.67361 8.44097C7.67361 8.2934 7.52604 8.14583 7.37847 8.14583H6.78819C6.60373 8.14583 6.49306 8.2934 6.49306 8.44097V9.36328C5.60764 9.36328 4.90668 10.1011 4.90668 11.0234C4.90668 11.7613 5.38628 12.3885 6.05035 12.6098L7.7105 13.1263C7.93186 13.1632 8.04253 13.3477 8.04253 13.569C8.04253 13.8641 7.85807 14.0486 7.59983 14.0486H6.56684C6.41927 14.0486 6.23481 14.0117 6.08724 13.9379C5.97656 13.8641 5.82899 13.8641 5.71832 13.9748L5.3125 14.3806C5.16493 14.4913 5.16493 14.7127 5.3125 14.8234C5.64453 15.0816 6.05035 15.2292 6.49306 15.2292V16.1146C6.49306 16.299 6.60373 16.4097 6.78819 16.4097H7.37847C7.52604 16.4097 7.67361 16.299 7.67361 16.1146V15.2292C8.52214 15.2292 9.22309 14.4913 9.22309 13.569C9.22309 12.8312 8.74349 12.1671 8.07943 11.9826L6.41927 11.4661C6.19792 11.4293 6.08724 11.2448 6.08724 11.0234C6.08724 10.7283 6.2717 10.5069 6.52995 10.5069H7.56293C7.7105 10.5069 7.89497 10.5807 8.04253 10.6545C8.15321 10.7283 8.30078 10.7283 8.41146 10.6176L8.81727 10.2118C8.96484 10.1011 8.96484 9.87977 8.81727 9.7691C8.48524 9.51085 8.07943 9.36328 7.67361 9.36328V8.44097ZM3.24653 4.60417H6.19792C6.34549 4.60417 6.49306 4.49349 6.49306 4.30903V3.71875C6.49306 3.57118 6.34549 3.42361 6.19792 3.42361H3.24653C3.06207 3.42361 2.95139 3.57118 2.95139 3.71875V4.30903C2.95139 4.49349 3.06207 4.60417 3.24653 4.60417ZM6.49306 6.67014V6.07986C6.49306 5.93229 6.34549 5.78472 6.19792 5.78472H3.24653C3.06207 5.78472 2.95139 5.93229 2.95139 6.07986V6.67014C2.95139 6.8546 3.06207 6.96528 3.24653 6.96528H6.19792C6.34549 6.96528 6.49306 6.8546 6.49306 6.67014Z" fill="#010B2B"/>
</svg>
