<svg width="22" height="16" viewBox="0 0 22 16" fill="none" xmlns="http://www.w3.org/2000/svg">
<path d="M18.0625 6.5625C19.5234 6.5625 20.7188 5.40039 20.7188 3.90625C20.7188 2.44531 19.5234 1.25 18.0625 1.25C16.5684 1.25 15.4062 2.44531 15.4062 3.90625C15.4062 5.40039 16.5684 6.5625 18.0625 6.5625ZM18.0625 2.84375C18.627 2.84375 19.125 3.3418 19.125 3.90625C19.125 4.50391 18.627 4.96875 18.0625 4.96875C17.4648 4.96875 17 4.50391 17 3.90625C17 3.3418 17.4648 2.84375 18.0625 2.84375ZM3.1875 6.5625C4.64844 6.5625 5.84375 5.40039 5.84375 3.90625C5.84375 2.44531 4.64844 1.25 3.1875 1.25C1.69336 1.25 0.53125 2.44531 0.53125 3.90625C0.53125 5.40039 1.69336 6.5625 3.1875 6.5625ZM3.1875 2.84375C3.75195 2.84375 4.25 3.3418 4.25 3.90625C4.25 4.50391 3.75195 4.96875 3.1875 4.96875C2.58984 4.96875 2.125 4.50391 2.125 3.90625C2.125 3.3418 2.58984 2.84375 3.1875 2.84375ZM16.3359 9.84961C15.4062 8.52148 13.6465 7.99023 12.0859 8.48828C11.6211 8.62109 11.123 8.6875 10.5918 8.6875C10.0938 8.6875 9.5957 8.62109 9.13086 8.48828C7.57031 7.99023 5.77734 8.48828 4.88086 9.84961C4.48242 10.4805 4.2168 11.2109 4.2168 12.0078V13.4688C4.2168 14.3652 4.94727 15.0625 5.81055 15.0625H15.373C16.2695 15.0625 16.9668 14.3652 16.9668 13.4688V12.0078C17 11.2109 16.7344 10.4805 16.3359 9.84961ZM15.4062 13.4688H5.84375V12.0078C5.84375 10.7793 6.80664 9.7832 8.00195 9.75C8.83203 10.1152 9.72852 10.2812 10.625 10.2812C11.4883 10.2812 12.3848 10.1152 13.2148 9.75C14.4102 9.7832 15.4062 10.7793 15.4062 12.0078V13.4688ZM18.4609 7.625H17.6641C17.0664 7.625 16.5352 7.82422 16.1035 8.12305C16.5352 8.45508 16.9336 8.85352 17.2324 9.31836C17.3652 9.28516 17.498 9.21875 17.6309 9.21875H18.4277C19.0918 9.21875 19.623 9.7832 19.623 10.4141C19.623 10.8789 19.9883 11.2109 20.4199 11.2109C20.8848 11.2109 21.2168 10.8789 21.2168 10.4141C21.25 8.88672 19.9883 7.625 18.4609 7.625ZM10.625 7.625C12.6504 7.625 14.3438 5.96484 14.3438 3.90625C14.3438 1.88086 12.6504 0.1875 10.625 0.1875C8.56641 0.1875 6.90625 1.88086 6.90625 3.90625C6.90625 5.96484 8.56641 7.625 10.625 7.625ZM10.625 1.78125C11.7871 1.78125 12.75 2.74414 12.75 3.90625C12.75 5.10156 11.7871 6.03125 10.625 6.03125C9.42969 6.03125 8.5 5.10156 8.5 3.90625C8.5 2.74414 9.42969 1.78125 10.625 1.78125ZM5.11328 8.12305C4.68164 7.82422 4.15039 7.625 3.58594 7.625H2.78906C1.22852 7.625 0 8.88672 0 10.4141C0 10.8789 0.332031 11.2109 0.796875 11.2109C1.22852 11.2109 1.59375 10.8789 1.59375 10.4141C1.59375 9.7832 2.125 9.21875 2.78906 9.21875H3.58594C3.71875 9.21875 3.85156 9.28516 3.98438 9.31836C4.2832 8.85352 4.68164 8.45508 5.11328 8.12305Z" fill="#010B2B"/>
</svg>
