<svg width="17" height="18" viewBox="0 0 17 18" fill="none" xmlns="http://www.w3.org/2000/svg">
<path d="M14.875 0.125H2.125C0.929688 0.125 0 1.08789 0 2.25V11.8125C0 13.0078 0.929688 13.9375 2.125 13.9375H5.3125V16.7266C5.3125 16.9922 5.47852 17.125 5.71094 17.125C5.77734 17.125 5.84375 17.125 5.94336 17.0586L10.0938 13.9375H14.875C16.0371 13.9375 17 13.0078 17 11.8125V2.25C17 1.08789 16.0371 0.125 14.875 0.125ZM15.4062 11.8125C15.4062 12.1113 15.1406 12.3438 14.875 12.3438H9.5625L9.13086 12.6758L6.90625 14.3359V12.3438H2.125C1.82617 12.3438 1.59375 12.1113 1.59375 11.8125V2.25C1.59375 1.98438 1.82617 1.71875 2.125 1.71875H14.875C15.1406 1.71875 15.4062 1.98438 15.4062 2.25V11.8125ZM12.2188 4.64062H4.78125C4.48242 4.64062 4.25 4.90625 4.25 5.17188V5.70312C4.25 6.00195 4.48242 6.23438 4.78125 6.23438H12.2188C12.4844 6.23438 12.75 6.00195 12.75 5.70312V5.17188C12.75 4.90625 12.4844 4.64062 12.2188 4.64062ZM9.03125 7.82812H4.78125C4.48242 7.82812 4.25 8.09375 4.25 8.35938V8.89062C4.25 9.18945 4.48242 9.42188 4.78125 9.42188H9.03125C9.29688 9.42188 9.5625 9.18945 9.5625 8.89062V8.35938C9.5625 8.09375 9.29688 7.82812 9.03125 7.82812Z" fill="#010B2B"/>
</svg>
