<svg width="18" height="19" viewBox="0 0 18 19" fill="none" xmlns="http://www.w3.org/2000/svg">
<path d="M7.46094 2.11719C7.22656 2.27344 7.14844 2.50781 7.14844 2.78125C7.14844 3.01562 7.26562 3.25 7.46094 3.44531L12.1484 7.9375L0.9375 7.9375C0.664062 7.9375 0.429687 8.01562 0.273437 8.21094C0.0781247 8.36719 -3.32958e-07 8.60156 -3.4491e-07 8.875L-3.99549e-07 10.125C-4.09794e-07 10.3594 0.0781246 10.5937 0.273437 10.7891C0.429687 10.9453 0.664062 11.0625 0.9375 11.0625L12.1484 11.0625L7.46094 15.5547C7.26562 15.7109 7.14844 15.9453 7.14844 16.2187C7.14844 16.4531 7.22656 16.6875 7.46094 16.8828L8.32031 17.7422C8.47656 17.8984 8.71094 18.0156 8.98437 18.0156C9.21875 18.0156 9.45312 17.8984 9.64844 17.7422L17.2266 10.1641C17.3828 9.96875 17.5 9.73438 17.5 9.5C17.5 9.22656 17.3828 8.99219 17.2266 8.83594L9.64844 1.25781C9.45312 1.0625 9.21875 0.984375 8.98438 0.984375C8.71094 0.984375 8.47656 1.0625 8.32031 1.25781L7.46094 2.11719Z" fill="white"/>
</svg>
