<svg width="19" height="20" viewBox="0 0 19 20" fill="none" xmlns="http://www.w3.org/2000/svg">
<path d="M12.8795 9.86528L18.158 15.1438C18.4747 15.4605 18.6331 15.8476 18.6331 16.3051C18.6331 16.7625 18.4747 17.1672 18.158 17.5191L16.9968 18.6804C16.6449 18.9971 16.2402 19.1554 15.7827 19.1554C15.3252 19.1554 14.9381 18.9971 14.6214 18.6804L9.34294 13.4019L4.06444 18.6804C3.74773 18.9971 3.36064 19.1554 2.90317 19.1554C2.4457 19.1554 2.04102 18.9971 1.68912 18.6804L0.52785 17.5191C0.21114 17.1672 0.052785 16.7625 0.052785 16.3051C0.052785 15.8476 0.21114 15.4605 0.52785 15.1438L5.80635 9.86528L0.52785 4.58679C0.21114 4.27008 0.052785 3.88299 0.052785 3.42552C0.052785 2.96805 0.21114 2.56336 0.52785 2.21146L1.68912 1.05019C2.04102 0.733484 2.4457 0.575129 2.90317 0.575129C3.36064 0.575129 3.74773 0.733484 4.06444 1.05019L9.34294 6.32869L14.6214 1.05019C14.9381 0.733484 15.3252 0.575129 15.7827 0.575129C16.2402 0.575129 16.6449 0.733484 16.9968 1.05019L18.158 2.21146C18.4747 2.56336 18.6331 2.96805 18.6331 3.42552C18.6331 3.88299 18.4747 4.27008 18.158 4.58679L12.8795 9.86528Z" fill="#010B2B"/>
</svg>
