<?xml version="1.0" encoding="utf-8"?>
<!-- Generator: Adobe Illustrator 24.1.2, SVG Export Plug-In . SVG Version: 6.00 Build 0)  -->
<svg version="1.1" id="Слой_1" xmlns="http://www.w3.org/2000/svg" xmlns:xlink="http://www.w3.org/1999/xlink" x="0px" y="0px"
	 viewBox="0 0 70.9 40.7" style="enable-background:new 0 0 70.9 40.7;" xml:space="preserve">
<style type="text/css">
	.st0{fill-rule:evenodd;clip-rule:evenodd;fill:#FFFFFF;}
</style>
<g id="Слой_2_1_">
	<g id="Layer_1">
		<path class="st0" d="M70.9,20.8L70.9,20.8C70.5,20.4,56.7,7.9,39.2,6.3L35.5,0l0,0l-3.7,6.3C14,7.9,0,20.8,0,20.8
			s14.4,13.3,32.6,14.6l2.9,5.3l2.9-5.3C56.2,34.1,70.5,21.2,70.9,20.8z M40.2,32l6.9-12.6l-1.8-3l-8.5,15.9h-2.6l-8.5-15.9l-1.8,3
			L30.8,32c-14-1.9-27-11-27.3-11.2c0.3-0.2,12.6-8.8,26.2-11l-2.2,3.6l1.8,3.1l4.4-7.2c0.6,0,1.2-0.1,1.8-0.1c0.6,0,1.2,0,1.8,0.1
			l4.4,7.2l1.8-3.1l-2.2-3.6c13.6,2.1,26.2,10.8,26.5,11C67.5,21,54.3,30.1,40.2,32z"/>
	</g>
</g>
</svg>
