<svg xmlns="http://www.w3.org/2000/svg" viewBox="0 0 70.9 40.7"><defs><style>.cls-1{fill:#d40d26;fill-rule:evenodd;}</style></defs><title>logo_mobile</title><g id="Слой_2" data-name="Слой 2"><g id="Layer_1" data-name="Layer 1"><path class="cls-1" d="M70.9,20.8h0c-.4-.4-14.2-12.9-31.7-14.5L35.5,0h0L31.8,6.3C14,7.9,0,20.8,0,20.8S14.4,34.1,32.6,35.4l2.9,5.3,2.9-5.3c17.8-1.3,32.1-14.2,32.5-14.6ZM40.2,32l6.9-12.6-1.8-3L36.8,32.3H34.2L25.7,16.4l-1.8,3L30.8,32c-14-1.9-27-11-27.3-11.2.3-.2,12.6-8.8,26.2-11l-2.2,3.6,1.8,3.1,4.4-7.2c.6,0,1.2-.1,1.8-.1a10.87,10.87,0,0,1,1.8.1l4.4,7.2,1.8-3.1L41.3,9.8c13.6,2.1,26.2,10.8,26.5,11C67.5,21,54.3,30.1,40.2,32Z"/></g></g></svg>