<?xml version="1.0" encoding="utf-8"?>
<!-- Generator: Adobe Illustrator 24.1.2, SVG Export Plug-In . SVG Version: 6.00 Build 0)  -->
<svg version="1.1" id="Слой_1" xmlns="http://www.w3.org/2000/svg" xmlns:xlink="http://www.w3.org/1999/xlink" x="0px" y="0px"
	 viewBox="0 0 15 18" style="enable-background:new 0 0 15 18;" xml:space="preserve">
<desc>Created with Sketch.</desc>
<g id="vote_x2F_against-btn-selected">
	<path id="Shape-Copy" d="M1,4h2.5v7H1V4z M15,10.6c0,0.7-0.6,1.2-1.3,1.2h-4l-0.4,3.7c0,0.1,0,0.1,0,0.2c0,0.3-0.1,0.5-0.3,0.6
		L8.5,17l-3.1-4.9C5.1,11.9,5,11.6,5,11.2v-6C5,4.5,5.6,4,6.2,4h5.6c0.5,0,1,0.3,1.2,0.7L14.9,9C15,9.1,15,9.3,15,9.4V10.6L15,10.6z
		"/>
</g>
</svg>
