<?xml version="1.0" encoding="utf-8"?>
<!-- Generator: Adobe Illustrator 24.1.2, SVG Export Plug-In . SVG Version: 6.00 Build 0)  -->
<svg version="1.1" id="Слой_1" xmlns="http://www.w3.org/2000/svg" xmlns:xlink="http://www.w3.org/1999/xlink" x="0px" y="0px"
	 viewBox="0 0 15 18" style="enable-background:new 0 0 15 18;" xml:space="preserve">
<desc>Created with Sketch.</desc>
<g id="vote_x2F_for-btn-selected">
	<path id="Shape-Copy" d="M1,13h2.5V6H1V13z M15,6.4c0-0.7-0.6-1.2-1.3-1.2h-4L9.4,1.5c0-0.1,0-0.1,0-0.2c0-0.3-0.1-0.5-0.3-0.6
		L8.5,0L5.4,4.9C5.1,5.1,5,5.4,5,5.8v6C5,12.5,5.6,13,6.2,13h5.6c0.5,0,1-0.3,1.2-0.7L14.9,8C15,7.9,15,7.7,15,7.6V6.4L15,6.4z"/>
</g>
</svg>
