<svg xmlns="http://www.w3.org/2000/svg" viewBox="0 0 124.5 124.5"><defs><style>.cls-1{fill:#42e8e0;}</style></defs><title>Attachment</title><g id="Слой_2" data-name="Слой 2"><g id="Слой_1-2" data-name="Слой 1"><g id="Alchemy"><g id="Proposal-boosted"><g id="Proposal-boosted-W"><g id="Proposal"><g id="link"><path id="Shape" class="cls-1" d="M19.53,19.53C27.86,11.21,42,11.77,51,20.79l21.1,21.09,9.24-9.25L60.22,11.54C45.66-3,23-3.92,9.51,9.51S-3,45.66,11.54,60.22L32.63,81.31l9.25-9.24L20.79,51C11.77,42,11.21,27.86,19.53,19.53ZM36.29,46,78.47,88.21l9.74-9.74L46,36.29ZM113,64.28l-21.1-21.1-9.25,9.25,21.1,21.1c9,9,9.58,23.11,1.26,31.44s-22.43,7.76-31.44-1.26l-21.1-21.1-9.25,9.25L64.28,113c14.55,14.55,37.27,15.46,50.71,2S127.51,78.83,113,64.28Z"/></g></g></g></g></g></g></g></svg>