<svg width="29" height="30" viewBox="0 0 29 30" fill="none" xmlns="http://www.w3.org/2000/svg">
<path d="M27.4464 6.35714C27.878 6.35714 28.2448 6.50818 28.5469 6.81027C28.849 7.11235 29 7.47917 29 7.91071V27.5893C29 28.0208 28.849 28.3876 28.5469 28.6897C28.2448 28.9918 27.878 29.1429 27.4464 29.1429H11.9107C11.4792 29.1429 11.1124 28.9918 10.8103 28.6897C10.5082 28.3876 10.3571 28.0208 10.3571 27.5893V22.9286H1.55357C1.12202 22.9286 0.755208 22.7775 0.453125 22.4754C0.151042 22.1734 0 21.8065 0 21.375V10.5C0 10.0685 0.107887 9.59375 0.323661 9.07589C0.539435 8.55804 0.798363 8.14807 1.10045 7.84598L7.70312 1.2433C8.00521 0.941219 8.41518 0.682291 8.93304 0.466516C9.45089 0.250742 9.9256 0.142855 10.3571 0.142855H17.0893C17.5208 0.142855 17.8877 0.293897 18.1897 0.595982C18.4918 0.898065 18.6429 1.26488 18.6429 1.69643V7.00446C19.3765 6.57292 20.067 6.35714 20.7143 6.35714H27.4464ZM18.6429 9.80413L13.8041 14.6429H18.6429V9.80413ZM8.28571 3.58984L3.44699 8.42857H8.28571V3.58984ZM11.4576 14.0603L16.5714 8.94643V2.21428H10.3571V8.94643C10.3571 9.37798 10.2061 9.74479 9.90402 10.0469C9.60193 10.349 9.23512 10.5 8.80357 10.5H2.07143V20.8571H10.3571V16.7143C10.3571 16.2827 10.465 15.808 10.6808 15.2902C10.8966 14.7723 11.1555 14.3624 11.4576 14.0603ZM26.9286 27.0714V8.42857H20.7143V15.1607C20.7143 15.5923 20.5632 15.9591 20.2612 16.2612C19.9591 16.5632 19.5923 16.7143 19.1607 16.7143H12.4286V27.0714H26.9286Z" fill="white"/>
</svg>
