<svg width="28" height="23" viewBox="0 0 28 23" fill="none" xmlns="http://www.w3.org/2000/svg">
<path d="M25.1289 5.8125C26.2227 4.99219 27.207 4.00781 27.9727 2.85938C26.9883 3.29688 25.8398 3.625 24.6914 3.73438C25.8945 3.02344 26.7695 1.92969 27.207 0.5625C26.1133 1.21875 24.8555 1.71094 23.5977 1.98438C22.5039 0.835938 21.0273 0.179688 19.3867 0.179688C16.2148 0.179688 13.6445 2.75 13.6445 5.92188C13.6445 6.35938 13.6992 6.79688 13.8086 7.23438C9.05078 6.96094 4.78516 4.66406 1.94141 1.21875C1.44922 2.03906 1.17578 3.02344 1.17578 4.11719C1.17578 6.08594 2.16016 7.83594 3.74609 8.875C2.81641 8.82031 1.88672 8.60156 1.12109 8.16406V8.21875C1.12109 11.0078 3.08984 13.3047 5.71484 13.8516C5.27734 13.9609 4.73047 14.0703 4.23828 14.0703C3.85547 14.0703 3.52734 14.0156 3.14453 13.9609C3.85547 16.2578 5.98828 17.8984 8.50391 17.9531C6.53516 19.4844 4.07422 20.4141 1.39453 20.4141C0.902344 20.4141 0.464844 20.3594 0.0273438 20.3047C2.54297 21.9453 5.55078 22.875 8.83203 22.875C19.3867 22.875 25.1289 14.1797 25.1289 6.57812C25.1289 6.30469 25.1289 6.08594 25.1289 5.8125Z" fill="white"/>
</svg>
