<svg width="28" height="28" viewBox="0 0 28 28" fill="none" xmlns="http://www.w3.org/2000/svg">
<path d="M9.46094 22.2656C9.46094 22.1562 9.35156 22.0469 9.1875 22.0469C9.02344 22.0469 8.91406 22.1562 8.91406 22.2656C8.91406 22.375 9.02344 22.4844 9.1875 22.4297C9.35156 22.4297 9.46094 22.375 9.46094 22.2656ZM7.76562 21.9922C7.76562 22.1016 7.875 22.2656 8.03906 22.2656C8.14844 22.3203 8.3125 22.2656 8.36719 22.1562C8.36719 22.0469 8.3125 21.9375 8.14844 21.8828C7.98438 21.8281 7.82031 21.8828 7.76562 21.9922ZM10.2266 21.9375C10.0625 21.9375 9.95312 22.0469 9.95312 22.2109C9.95312 22.3203 10.1172 22.375 10.2812 22.3203C10.4453 22.2656 10.5547 22.2109 10.5 22.1016C10.5 21.9922 10.3359 21.8828 10.2266 21.9375ZM13.7812 0.9375C6.23438 0.9375 0.4375 6.73438 0.4375 14.2812C0.4375 20.3516 4.21094 25.5469 9.67969 27.4062C10.3906 27.5156 10.6094 27.0781 10.6094 26.75C10.6094 26.3672 10.6094 24.5078 10.6094 23.3594C10.6094 23.3594 6.78125 24.1797 5.96094 21.7188C5.96094 21.7188 5.35938 20.1328 4.48438 19.75C4.48438 19.75 3.22656 18.875 4.53906 18.875C4.53906 18.875 5.90625 18.9844 6.67188 20.2969C7.875 22.4297 9.84375 21.8281 10.6641 21.4453C10.7734 20.5703 11.1016 19.9688 11.5391 19.5859C8.47656 19.2578 5.35938 18.8203 5.35938 13.5703C5.35938 12.0391 5.79688 11.3281 6.67188 10.3438C6.50781 9.96094 6.07031 8.53906 6.83594 6.625C7.92969 6.29688 10.6094 8.10156 10.6094 8.10156C11.7031 7.77344 12.8516 7.66406 14 7.66406C15.2031 7.66406 16.3516 7.77344 17.4453 8.10156C17.4453 8.10156 20.0703 6.24219 21.2188 6.625C21.9844 8.53906 21.4922 9.96094 21.3828 10.3438C22.2578 11.3281 22.8047 12.0391 22.8047 13.5703C22.8047 18.8203 19.5781 19.2578 16.5156 19.5859C17.0078 20.0234 17.4453 20.8438 17.4453 22.1562C17.4453 23.9609 17.3906 26.2578 17.3906 26.6953C17.3906 27.0781 17.6641 27.5156 18.375 27.3516C23.8438 25.5469 27.5625 20.3516 27.5625 14.2812C27.5625 6.73438 21.3828 0.9375 13.7812 0.9375ZM5.74219 19.8047C5.63281 19.8594 5.6875 20.0234 5.74219 20.1328C5.85156 20.1875 5.96094 20.2422 6.07031 20.1875C6.125 20.1328 6.125 19.9688 6.01562 19.8594C5.90625 19.8047 5.79688 19.75 5.74219 19.8047ZM5.14062 19.3672C5.08594 19.4766 5.14062 19.5312 5.25 19.5859C5.35938 19.6406 5.46875 19.6406 5.52344 19.5312C5.52344 19.4766 5.46875 19.4219 5.35938 19.3672C5.25 19.3125 5.19531 19.3125 5.14062 19.3672ZM6.89062 21.3359C6.83594 21.3906 6.83594 21.5547 7 21.6641C7.10938 21.7734 7.27344 21.8281 7.32812 21.7188C7.38281 21.6641 7.38281 21.5 7.27344 21.3906C7.16406 21.2812 7 21.2266 6.89062 21.3359ZM6.28906 20.5156C6.17969 20.5703 6.17969 20.7344 6.28906 20.8438C6.39844 20.9531 6.50781 21.0078 6.61719 20.9531C6.67188 20.8984 6.67188 20.7344 6.61719 20.625C6.50781 20.5156 6.39844 20.4609 6.28906 20.5156Z" fill="white"/>
</svg>
