<svg width="28" height="21" viewBox="0 0 28 21" fill="none" xmlns="http://www.w3.org/2000/svg">
<path d="M3.88281 4.32031V16.0234C3.9375 16.4062 3.82812 16.8438 3.55469 17.1719L0.765625 20.5078V20.9453H8.64062V20.5078L5.85156 17.1719C5.52344 16.8438 5.41406 16.4062 5.46875 16.0234V5.90625L12.3594 21H13.1797L19.1406 5.90625V17.8828C19.1406 18.2109 19.1406 18.2656 18.9219 18.4844L16.7891 20.5625V21H27.1797V20.5625L25.1016 18.5391C24.9375 18.4297 24.8281 18.1562 24.8828 17.9375V3.0625C24.8281 2.84375 24.9375 2.625 25.1016 2.51562L27.1797 0.492188V0H19.9062L14.6562 13.0156L8.75 0H1.09375V0.492188L3.55469 3.44531C3.77344 3.66406 3.9375 3.99219 3.88281 4.32031Z" fill="white"/>
</svg>
