<svg width="22" height="23" viewBox="0 0 22 23" fill="none" xmlns="http://www.w3.org/2000/svg">
<path d="M21.875 3.03125C21.875 2.39648 21.6309 1.85938 21.1914 1.37109C20.7031 0.931641 20.166 0.6875 19.5312 0.6875H2.34375C1.66016 0.6875 1.12305 0.931641 0.683594 1.37109C0.195312 1.85938 0 2.39648 0 3.03125V20.2188C0 20.9023 0.195312 21.4395 0.683594 21.8789C1.12305 22.3672 1.66016 22.5625 2.34375 22.5625H19.5312C20.166 22.5625 20.7031 22.3672 21.1914 21.8789C21.6309 21.4395 21.875 20.9023 21.875 20.2188V3.03125ZM19.5312 19.9258C19.5312 20.0234 19.4824 20.0723 19.4336 20.1211C19.3359 20.2188 19.2871 20.2188 19.2383 20.2188H2.63672C2.53906 20.2188 2.49023 20.2188 2.44141 20.1211C2.34375 20.0723 2.34375 20.0234 2.34375 19.9258V3.32422C2.34375 3.27539 2.34375 3.22656 2.44141 3.12891C2.49023 3.08008 2.53906 3.03125 2.63672 3.03125H19.2383C19.2871 3.03125 19.3359 3.08008 19.4336 3.12891C19.4824 3.22656 19.5312 3.27539 19.5312 3.32422V19.9258ZM10.9375 4.88672C10.3516 4.88672 9.86328 5.13086 9.47266 5.52148C9.08203 5.91211 8.88672 6.40039 8.88672 6.9375C8.88672 7.52344 9.08203 8.01172 9.47266 8.40234C9.86328 8.79297 10.3516 8.98828 10.9375 8.98828C11.4746 8.98828 11.9629 8.79297 12.3535 8.40234C12.7441 8.01172 12.9883 7.52344 12.9883 6.9375C12.9883 6.40039 12.7441 5.91211 12.3535 5.52148C11.9629 5.13086 11.4746 4.88672 10.9375 4.88672ZM13.6719 17.2891V16.1172C13.6719 15.9707 13.5742 15.8242 13.4766 15.7266C13.3789 15.6289 13.2324 15.5312 13.0859 15.5312H12.5V10.6484C12.5 10.502 12.4023 10.3555 12.3047 10.2578C12.207 10.1602 12.0605 10.0625 11.9141 10.0625H8.78906C8.59375 10.0625 8.44727 10.1602 8.34961 10.2578C8.25195 10.3555 8.20312 10.502 8.20312 10.6484V11.8203C8.20312 12.0156 8.25195 12.1621 8.34961 12.2598C8.44727 12.3574 8.59375 12.4062 8.78906 12.4062H9.375V15.5312H8.78906C8.59375 15.5312 8.44727 15.6289 8.34961 15.7266C8.25195 15.8242 8.20312 15.9707 8.20312 16.1172V17.2891C8.20312 17.4844 8.25195 17.6309 8.34961 17.7285C8.44727 17.8262 8.59375 17.875 8.78906 17.875H13.0859C13.2324 17.875 13.3789 17.8262 13.4766 17.7285C13.5742 17.6309 13.6719 17.4844 13.6719 17.2891Z" fill="#42E8E0"/>
</svg>
