<svg width="29" height="23" viewBox="0 0 29 23" fill="none" xmlns="http://www.w3.org/2000/svg">
<path d="M22.2852 8.23438C21.9023 9.38281 23.6523 9.98438 24.0352 8.78125C24.8555 6.21094 22.5586 3.58594 19.8242 4.1875C18.6211 4.40625 19.0039 6.21094 20.207 5.9375C21.5195 5.66406 22.668 6.92188 22.2852 8.23438ZM11.7305 22.9453C22.9414 22.9453 28.4648 13.4844 21.0273 11.1875C20.6445 11.0781 20.3711 10.9688 20.5898 10.4766C22.0117 6.75781 18.6758 5.82812 14.3555 7.63281C14.3555 7.63281 13.4258 8.07031 13.6445 7.30469C15.2852 2.10938 9.65234 2.16406 4.18359 7.63281C1.55859 10.2578 0.0273438 13.1016 0.0273438 15.5078C0.0273438 20.1562 5.93359 22.9453 11.7305 22.9453ZM19.6055 14.9609C19.8789 18.0234 16.3789 20.8125 11.7852 21.3047C7.13672 21.7422 3.14453 19.6641 2.81641 16.6016C2.54297 13.5391 6.04297 10.75 10.6914 10.2578C15.3398 9.82031 19.332 11.8984 19.6055 14.9609ZM19.0039 0.46875C17.6367 0.742188 18.1289 2.82031 19.4961 2.54688C23.4336 1.72656 26.8789 5.44531 25.5664 9.32812C25.1836 10.6406 27.207 11.3516 27.6445 9.98438C29.3945 4.51562 24.6367 -0.734375 19.0039 0.46875ZM14.7383 17.4766C15.668 15.3438 14.5195 13.2109 12.2227 12.6094C10.0352 12.0625 7.51953 13.1562 6.58984 15.0703C5.60547 17.0391 6.53516 19.2812 8.77734 19.9922C11.0742 20.7578 13.8086 19.5547 14.7383 17.4766ZM10.0352 15.8359C10.7461 16.1094 10.9648 16.9297 10.5273 17.6953C10.0898 18.4062 9.10547 18.6797 8.39453 18.3516C7.68359 18.0234 7.46484 17.2031 7.95703 16.4922C8.39453 15.8359 9.32422 15.5078 10.0352 15.8359ZM11.7852 15.0703C12.0586 15.1797 12.168 15.5078 12.0039 15.7812C11.8398 16.0547 11.5117 16.1641 11.2383 16.0547C10.9648 15.9453 10.8555 15.6719 11.0195 15.3984C11.1836 15.125 11.5117 14.9609 11.7852 15.0703Z" fill="white"/>
</svg>
