<svg width="13" height="18" viewBox="0 0 13 18" fill="none" xmlns="http://www.w3.org/2000/svg">
<path d="M7.42188 7.99414C7.42188 7.76172 7.22266 7.5957 7.02344 7.5957H6.22656C5.99414 7.5957 5.82812 7.76172 5.82812 7.99414V10.7832H4.20117C3.83594 10.7832 3.66992 11.2148 3.90234 11.4473L6.29297 13.8379C6.45898 14.0039 6.75781 14.0039 6.92383 13.8379L9.31445 11.4473C9.54688 11.2148 9.38086 10.7832 9.01562 10.7832H7.42188V7.99414ZM12.502 3.37891L9.71289 0.623047C9.41406 0.324219 9.01562 0.125 8.61719 0.125H1.81055C0.947266 0.158203 0.25 0.855469 0.25 1.75195V15.5645C0.25 16.4277 0.947266 17.125 1.81055 17.125H11.373C12.2695 17.125 13 16.4277 13 15.5645V4.50781C13 4.10938 12.8008 3.67773 12.502 3.37891ZM8.7168 1.85156L11.2734 4.4082H8.7168V1.85156ZM11.4062 15.5645H1.81055V1.75195H7.12305V5.20508C7.12305 5.63672 7.48828 6.00195 7.91992 6.00195H11.4062V15.5645Z" fill="#42E8E0"/>
</svg>
