<?xml version="1.0" encoding="utf-8"?>
<!-- Generator: Adobe Illustrator 23.0.2, SVG Export Plug-In . SVG Version: 6.00 Build 0)  -->
<svg version="1.1" id="Слой_1" xmlns="http://www.w3.org/2000/svg" xmlns:xlink="http://www.w3.org/1999/xlink" x="0px" y="0px"
	 viewBox="0 0 15 16" style="enable-background:new 0 0 15 16;" xml:space="preserve">
<style type="text/css">
	.st0{fill:#9AA9B5;}
</style>
<path class="st0" d="M13.3,0.2c0.4,0,0.8,0.2,1.1,0.5c0.3,0.3,0.5,0.7,0.5,1.1v11.7c0,0.5-0.2,0.8-0.5,1.1c-0.3,0.3-0.7,0.5-1.1,0.5
	H1.6c-0.5,0-0.8-0.1-1.1-0.5C0.1,14.3,0,13.9,0,13.5V1.8C0,1.3,0.1,1,0.5,0.7c0.3-0.3,0.7-0.5,1.1-0.5H13.3z M13.3,13.5V1.8H1.6
	v11.7H13.3z M12.1,5.4c0.1-0.1,0.1-0.1,0.1-0.3c0-0.1-0.1-0.2-0.1-0.3l-0.7-0.7C11.3,4.1,11.2,4,11.1,4c-0.1,0-0.2,0.1-0.3,0.1
	L6.1,8.8l-2-2C4,6.7,3.9,6.7,3.8,6.7c-0.1,0-0.2,0-0.3,0.1L2.8,7.5C2.7,7.6,2.7,7.7,2.7,7.8c0,0.1,0,0.2,0.1,0.3l3,3
	c0.1,0.1,0.1,0.1,0.3,0.1c0.1,0,0.2,0,0.3-0.1L12.1,5.4z"/>
</svg>
