<svg width="15" height="16" viewBox="0 0 15 16" fill="none" xmlns="http://www.w3.org/2000/svg">
<path d="M13.2812 0.1875C13.7129 0.1875 14.0781 0.353516 14.4102 0.652344C14.709 0.984375 14.875 1.34961 14.875 1.78125V13.4688C14.875 13.9336 14.709 14.2988 14.4102 14.5977C14.0781 14.9297 13.7129 15.0625 13.2812 15.0625H1.59375C1.12891 15.0625 0.763672 14.9297 0.464844 14.5977C0.132812 14.2988 0 13.9336 0 13.4688V1.78125C0 1.34961 0.132812 0.984375 0.464844 0.652344C0.763672 0.353516 1.12891 0.1875 1.59375 0.1875H13.2812ZM13.2812 13.4688V1.78125H1.59375V13.4688H13.2812ZM12.0859 5.43359C12.1523 5.36719 12.2188 5.30078 12.2188 5.16797C12.2188 5.06836 12.1523 4.96875 12.0859 4.86914L11.3555 4.13867C11.2559 4.07227 11.1562 4.00586 11.0566 4.00586C10.9238 4.00586 10.8574 4.07227 10.791 4.13867L6.07617 8.78711L4.11719 6.76172C4.01758 6.69531 3.91797 6.66211 3.81836 6.66211C3.68555 6.66211 3.61914 6.69531 3.55273 6.76172L2.78906 7.52539C2.68945 7.5918 2.65625 7.69141 2.65625 7.79102C2.65625 7.92383 2.68945 8.02344 2.78906 8.08984L5.81055 11.1113C5.87695 11.2109 5.94336 11.2441 6.07617 11.2441C6.17578 11.2441 6.27539 11.2109 6.375 11.1113L12.0859 5.43359Z" fill="#00C13B"/>
</svg>
