<?xml version="1.0" encoding="utf-8"?>
<!-- Generator: Adobe Illustrator 23.0.2, SVG Export Plug-In . SVG Version: 6.00 Build 0)  -->
<svg version="1.1" id="Слой_1" xmlns="http://www.w3.org/2000/svg" xmlns:xlink="http://www.w3.org/1999/xlink" x="0px" y="0px"
	 viewBox="0 0 15 15" style="enable-background:new 0 0 15 15;" xml:space="preserve">
<style type="text/css">
	.st0{fill:#9AA9B5;}
</style>
<path class="st0" d="M13.3,0c0.4,0,0.8,0.2,1.1,0.5c0.3,0.3,0.5,0.7,0.5,1.1v11.7c0,0.5-0.2,0.8-0.5,1.1c-0.3,0.3-0.7,0.5-1.1,0.5
	H1.6c-0.5,0-0.8-0.1-1.1-0.5C0.1,14.1,0,13.7,0,13.3V1.6c0-0.4,0.1-0.8,0.5-1.1C0.8,0.2,1.1,0,1.6,0H13.3z M13.3,13.3V1.6H1.6v11.7
	H13.3z"/>
<path class="st0" d="M5.5,4.5c-0.3-0.3-0.8-0.3-1.1,0c-0.3,0.3-0.3,0.8,0,1.1L5.5,4.5z M9.5,10.5c0.3,0.3,0.8,0.3,1.1,0
	c0.3-0.3,0.3-0.8,0-1.1L9.5,10.5z M4.5,5.5l5,5l1.1-1.1l-5-5L4.5,5.5z"/>
<path class="st0" d="M10.5,5.5c0.3-0.3,0.3-0.8,0-1.1c-0.3-0.3-0.8-0.3-1.1,0L10.5,5.5z M4.5,9.5c-0.3,0.3-0.3,0.8,0,1.1
	c0.3,0.3,0.8,0.3,1.1,0L4.5,9.5z M9.5,4.5l-5,5l1.1,1.1l5-5L9.5,4.5z"/>
</svg>
