<svg width="15" height="15" viewBox="0 0 15 15" fill="none" xmlns="http://www.w3.org/2000/svg">
<path d="M13.2812 0C13.7129 0 14.0781 0.166016 14.4102 0.464844C14.709 0.796875 14.875 1.16211 14.875 1.59375V13.2812C14.875 13.7461 14.709 14.1113 14.4102 14.4102C14.0781 14.7422 13.7129 14.875 13.2812 14.875H1.59375C1.12891 14.875 0.763672 14.7422 0.464844 14.4102C0.132812 14.1113 0 13.7461 0 13.2812V1.59375C0 1.16211 0.132812 0.796875 0.464844 0.464844C0.763672 0.166016 1.12891 0 1.59375 0H13.2812ZM13.2812 13.2812V1.59375H1.59375V13.2812H13.2812Z" fill="#D40D26"/>
<path d="M5.53029 4.46963C5.23742 4.17672 4.76258 4.17672 4.46971 4.46963C4.17683 4.76255 4.17683 5.23745 4.46971 5.53037L5.53029 4.46963ZM9.46904 10.5304C9.76191 10.8233 10.2368 10.8233 10.5296 10.5304C10.8225 10.2375 10.8225 9.76255 10.5296 9.46963L9.46904 10.5304ZM4.46971 5.53037L9.46904 10.5304L10.5296 9.46963L5.53029 4.46963L4.46971 5.53037Z" fill="#D40D26"/>
<path d="M10.5303 5.53037C10.8232 5.23745 10.8232 4.76255 10.5303 4.46963C10.2374 4.17672 9.76258 4.17672 9.46971 4.46963L10.5303 5.53037ZM4.47037 9.46963C4.1775 9.76255 4.1775 10.2375 4.47037 10.5304C4.76325 10.8233 5.23809 10.8233 5.53096 10.5304L4.47037 9.46963ZM9.46971 4.46963L4.47037 9.46963L5.53096 10.5304L10.5303 5.53037L9.46971 4.46963Z" fill="#D40D26"/>
</svg>
